<?xml version="1.0" encoding="UTF-8" standalone="no"?>
<!DOCTYPE svg PUBLIC "-//W3C//DTD SVG 1.1//EN" "http://www.w3.org/Graphics/SVG/1.1/DTD/svg11.dtd">
<svg width="100%" height="100%" viewBox="0 0 512 512" version="1.1" xmlns="http://www.w3.org/2000/svg" xmlns:xlink="http://www.w3.org/1999/xlink" xml:space="preserve" xmlns:serif="http://www.serif.com/" style="fill-rule:evenodd;clip-rule:evenodd;stroke-linejoin:round;stroke-miterlimit:2;">
    <path d="M512,128L512,384C512,454.645 454.645,512 384,512L128,512C57.355,512 0,454.645 0,384L0,128C0,57.355 57.355,0 128,0L384,0C454.645,0 512,57.355 512,128Z"/>
    <g transform="matrix(1,0,0,1,209.603,46.9279)">
        <path d="M82.2,400L82.2,299.2L118.2,299.2C129.816,299.2 139.44,301.408 147.072,305.824C154.704,310.24 160.416,316.24 164.208,323.824C168,331.408 169.896,340.048 169.896,349.744C169.896,359.344 168,367.936 164.208,375.52C160.416,383.104 154.704,389.08 147.072,393.448C139.44,397.816 129.816,400 118.2,400L82.2,400ZM115.752,317.344L102.36,317.344L102.36,381.856L115.752,381.856C123.72,381.856 130.152,380.44 135.048,377.608C139.944,374.776 143.496,370.936 145.704,366.088C147.912,361.24 149.016,355.792 149.016,349.744C149.016,343.6 147.912,338.104 145.704,333.256C143.496,328.408 139.944,324.544 135.048,321.664C130.152,318.784 123.72,317.344 115.752,317.344Z" style="fill:rgb(177,255,44);fill-rule:nonzero;"/>
        <path d="M180.696,400L180.696,299.2L214.68,299.2C225.624,299.2 233.976,301.648 239.736,306.544C245.496,311.44 248.376,317.824 248.376,325.696C248.376,330.496 247.2,334.648 244.848,338.152C242.496,341.656 238.248,344.56 232.104,346.864C240.36,348.784 246.072,351.928 249.24,356.296C252.408,360.664 253.992,365.968 253.992,372.208C253.992,380.656 250.776,387.4 244.344,392.44C237.912,397.48 229.224,400 218.28,400L180.696,400ZM200.856,340.816L212.808,340.816C218.28,340.816 222.168,339.832 224.472,337.864C226.776,335.896 227.928,332.896 227.928,328.864C227.928,325.408 226.776,322.6 224.472,320.44C222.168,318.28 218.28,317.2 212.808,317.2L200.856,317.2L200.856,340.816ZM200.856,381.856L216.408,381.856C221.88,381.856 226.104,380.824 229.08,378.76C232.056,376.696 233.544,373.456 233.544,369.04C233.544,365.392 232.056,362.512 229.08,360.4C226.104,358.288 221.88,357.232 216.408,357.232L200.856,357.232L200.856,381.856Z" style="fill:rgb(177,255,44);fill-rule:nonzero;"/>
    </g>
    <g transform="matrix(1,0,0,1,24,-24)">
        <g transform="matrix(1.19867,0,-0.828866,0.99889,107.01,70.5125)">
            <path d="M118,103.75L118,127.25C118,133.735 113.613,139 108.208,139L80.792,139C75.387,139 71,133.735 71,127.25L71,103.75C71,97.265 75.387,92 80.792,92L108.208,92C113.613,92 118,97.265 118,103.75Z" style="fill:white;"/>
        </g>
        <g transform="matrix(1.19867,0,-0.828866,0.99889,47.8625,121.274)">
            <path d="M118,103.75L118,127.25C118,133.735 113.613,139 108.208,139L80.792,139C75.387,139 71,133.735 71,127.25L71,103.75C71,97.265 75.387,92 80.792,92L108.208,92C113.613,92 118,97.265 118,103.75Z" style="fill:white;"/>
        </g>
        <g transform="matrix(1.19867,0,-0.828866,0.99889,170.672,70.5125)">
            <path d="M118,103.75L118,127.25C118,133.735 113.613,139 108.208,139L80.792,139C75.387,139 71,133.735 71,127.25L71,103.75C71,97.265 75.387,92 80.792,92L108.208,92C113.613,92 118,97.265 118,103.75Z" style="fill:white;"/>
        </g>
        <g transform="matrix(-0.718577,-8.80003e-17,0.496888,-0.598814,195.246,448.691)">
            <path d="M118,103.75L118,127.25C118,133.735 113.613,139 108.208,139L80.792,139C75.387,139 71,133.735 71,127.25L71,103.75C71,97.265 75.387,92 80.792,92L108.208,92C113.613,92 118,97.265 118,103.75Z" style="fill:white;"/>
        </g>
        <g transform="matrix(-1.19867,-1.46794e-16,0.828866,-0.99889,247.172,449.727)">
            <path d="M118,103.75L118,127.25C118,133.735 113.613,139 108.208,139L80.792,139C75.387,139 71,133.735 71,127.25L71,103.75C71,97.265 75.387,92 80.792,92L108.208,92C113.613,92 118,97.265 118,103.75Z" style="fill:white;"/>
        </g>
        <g transform="matrix(-1.19867,-1.46794e-16,0.828866,-0.99889,142.09,504.301)">
            <path d="M118,103.75L118,127.25C118,133.735 113.613,139 108.208,139L80.792,139C75.387,139 71,133.735 71,127.25L71,103.75C71,97.265 75.387,92 80.792,92L108.208,92C113.613,92 118,97.265 118,103.75Z" style="fill:white;"/>
        </g>
        <g transform="matrix(-0.599334,-7.33972e-17,0.379123,-0.456892,98.3895,428.964)">
            <path d="M118,103.75L118,127.25C118,133.735 113.986,139 109.043,139L79.957,139C75.014,139 71,133.735 71,127.25L71,103.75C71,97.265 75.014,92 79.957,92L109.043,92C113.986,92 118,97.265 118,103.75Z" style="fill:white;"/>
        </g>
        <g transform="matrix(-0.599334,-7.33972e-17,0.414433,-0.499445,70.0075,458.352)">
            <path d="M118,103.75L118,127.25C118,133.735 113.613,139 108.208,139L80.792,139C75.387,139 71,133.735 71,127.25L71,103.75C71,97.265 75.387,92 80.792,92L108.208,92C113.613,92 118,97.265 118,103.75Z" style="fill:white;"/>
        </g>
        <g transform="matrix(-0.599334,-7.33972e-17,0.379123,-0.456892,65.9426,428.964)">
            <path d="M118,103.75L118,127.25C118,133.735 113.986,139 109.043,139L79.957,139C75.014,139 71,133.735 71,127.25L71,103.75C71,97.265 75.014,92 79.957,92L109.043,92C113.986,92 118,97.265 118,103.75Z" style="fill:white;"/>
        </g>
        <g transform="matrix(-0.599334,-7.33972e-17,0.414433,-0.499445,37.5606,458.352)">
            <path d="M118,103.75L118,127.25C118,133.735 113.613,139 108.208,139L80.792,139C75.387,139 71,133.735 71,127.25L71,103.75C71,97.265 75.387,92 80.792,92L108.208,92C113.613,92 118,97.265 118,103.75Z" style="fill:white;"/>
        </g>
        <g transform="matrix(-0.599334,-7.33972e-17,0.379123,-0.456892,297.506,225.918)">
            <path d="M118,103.75L118,127.25C118,133.735 113.986,139 109.043,139L79.957,139C75.014,139 71,133.735 71,127.25L71,103.75C71,97.265 75.014,92 79.957,92L109.043,92C113.986,92 118,97.265 118,103.75Z" style="fill:white;"/>
        </g>
        <g transform="matrix(-0.599334,-7.33972e-17,0.414433,-0.499445,269.124,255.307)">
            <path d="M118,103.75L118,127.25C118,133.735 113.613,139 108.208,139L80.792,139C75.387,139 71,133.735 71,127.25L71,103.75C71,97.265 75.387,92 80.792,92L108.208,92C113.613,92 118,97.265 118,103.75Z" style="fill:white;"/>
        </g>
        <g transform="matrix(-0.599334,-7.33972e-17,0.379123,-0.456892,265.059,225.918)">
            <path d="M118,103.75L118,127.25C118,133.735 113.986,139 109.043,139L79.957,139C75.014,139 71,133.735 71,127.25L71,103.75C71,97.265 75.014,92 79.957,92L109.043,92C113.986,92 118,97.265 118,103.75Z" style="fill:white;"/>
        </g>
        <g transform="matrix(-0.599334,-7.33972e-17,0.414433,-0.499445,236.677,255.307)">
            <path d="M118,103.75L118,127.25C118,133.735 113.613,139 108.208,139L80.792,139C75.387,139 71,133.735 71,127.25L71,103.75C71,97.265 75.387,92 80.792,92L108.208,92C113.613,92 118,97.265 118,103.75Z" style="fill:white;"/>
        </g>
        <g transform="matrix(1.19867,0,-0.828866,0.99889,57.4513,172.035)">
            <path d="M118,103.75L118,127.25C118,133.735 113.613,139 108.208,139L80.792,139C75.387,139 71,133.735 71,127.25L71,103.75C71,97.265 75.387,92 80.792,92L108.208,92C113.613,92 118,97.265 118,103.75Z" style="fill:white;"/>
        </g>
        <g transform="matrix(1.19867,0,-0.828866,0.99889,121.113,172.035)">
            <path d="M118,103.75L118,127.25C118,133.735 113.613,139 108.208,139L80.792,139C75.387,139 71,133.735 71,127.25L71,103.75C71,97.265 75.387,92 80.792,92L108.208,92C113.613,92 118,97.265 118,103.75Z" style="fill:white;"/>
        </g>
        <g transform="matrix(1.19867,0,-0.828866,0.99889,184.776,172.035)">
            <path d="M118,103.75L118,127.25C118,133.735 113.613,139 108.208,139L80.792,139C75.387,139 71,133.735 71,127.25L71,103.75C71,97.265 75.387,92 80.792,92L108.208,92C113.613,92 118,97.265 118,103.75Z" style="fill:white;"/>
        </g>
    </g>
</svg>
